<svg xmlns="http://www.w3.org/2000/svg" xmlns:xlink="http://www.w3.org/1999/xlink" version="1.1"
	width="32" height="32" viewBox="0 0 1000 1000" xml:space="preserve">
<defs>
</defs>
<rect x="0" y="0" width="100%" height="100%" fill="transparent"/>
<g transform="matrix(-28.4091 0 0 28.4091 500.0001 500.0001)" id="118520">
<g style="" vector-effect="non-scaling-stroke">
		<g transform="matrix(2.2857 0 0 2.2857 -1.1409 -1.1498)" id="Vector">
<path style="stroke: none; stroke-width: 1; stroke-dasharray: none; stroke-linecap: butt; stroke-dashoffset: 0; stroke-linejoin: miter; stroke-miterlimit: 4; is-custom-font: none; font-file-url: none; fill: rgb(55,215,255); fill-rule: nonzero; opacity: 1;" transform=" translate(-6.5009, -6.497)" d="M 12.5 6.9 L 6.1 0.5 L 0.7 7.7 A 1 1 0 0 0 0.79 9 L 4 12.21 a 1 1 0 0 0 1.29 0.09 l 7.21 -5.4 Z" stroke-linecap="round"/>
</g>
		<g transform="matrix(2.2857 0 0 2.2857 12.0014 10.8578)" id="Vector_2">
<path style="stroke: none; stroke-width: 1; stroke-dasharray: none; stroke-linecap: butt; stroke-dashoffset: 0; stroke-linejoin: miter; stroke-miterlimit: 4; is-custom-font: none; font-file-url: none; fill: rgb(255,255,255); fill-rule: nonzero; opacity: 1;" transform=" translate(-12.2507, -11.7503)" d="M 11.304 13.067 c -0.387 -0.448 -0.262 -1.118 -0.037 -1.666 c 0.162 -0.395 0.366 -0.76 0.608 -1.176 A 0.416 0.416 0 0 1 12.25 10 a 0.4 0.4 0 0 1 0.367 0.225 c 0.247 0.417 0.454 0.783 0.617 1.18 c 0.225 0.545 0.35 1.212 -0.035 1.66 a 1.25 1.25 0 0 1 -1.895 0.002 Z" stroke-linecap="round"/>
</g>
		<g transform="matrix(2.2857 0 0 2.2857 -1.1409 -1.1498)" id="Vector_3">
<path style="stroke: rgb(62,62,62); stroke-width: 1; stroke-dasharray: none; stroke-linecap: round; stroke-dashoffset: 0; stroke-linejoin: round; stroke-miterlimit: 4; is-custom-font: none; font-file-url: none; fill: none; fill-rule: nonzero; opacity: 1;" transform=" translate(-6.5009, -6.497)" d="M 12.5 6.9 L 6.1 0.5 L 0.7 7.7 A 1 1 0 0 0 0.79 9 L 4 12.21 a 1 1 0 0 0 1.29 0.09 l 7.21 -5.4 Z" stroke-linecap="round"/>
</g>
		<g transform="matrix(2.2857 0 0 2.2857 12.0014 10.8578)" id="Vector_4">
<path style="stroke: rgb(62,62,62); stroke-width: 1; stroke-dasharray: none; stroke-linecap: round; stroke-dashoffset: 0; stroke-linejoin: round; stroke-miterlimit: 4; is-custom-font: none; font-file-url: none; fill: none; fill-rule: nonzero; opacity: 1;" transform=" translate(-12.2507, -11.7503)" d="M 11.304 13.067 c -0.387 -0.448 -0.262 -1.118 -0.037 -1.666 c 0.162 -0.395 0.366 -0.76 0.608 -1.176 A 0.416 0.416 0 0 1 12.25 10 a 0.4 0.4 0 0 1 0.367 0.225 c 0.247 0.417 0.454 0.783 0.617 1.18 c 0.225 0.545 0.35 1.212 -0.035 1.66 a 1.25 1.25 0 0 1 -1.895 0.002 Z" stroke-linecap="round"/>
</g>
</g>
</g>
</svg>